<svg xmlns="http://www.w3.org/2000/svg" width="24576" height="24576" viewBox="0 0 18432 18432"><path d="M7074.816 1413.12c-4.608 27.648-9.216 70.656-9.216 95.232 0 50.688-67.584 262.656-101.376 314.88-10.752 16.896-41.472 72.192-67.584 122.88-69.12 127.488-84.48 141.312-119.808 104.448-15.36-16.896-32.256-43.008-36.864-56.832-12.288-30.72-193.536-165.888-285.696-211.968-130.56-66.048-348.672-87.552-536.064-52.224-47.616 9.216-72.192 36.864-32.256 36.864 9.216 0 12.288 4.608 7.68 9.216-6.144 6.144-19.968 1.536-33.792-9.216-27.648-23.04-36.864-16.896-46.08 30.72-13.824 72.192 7.68 104.448 87.552 133.632 82.944 29.184 156.672 87.552 170.496 135.168 4.608 16.896 19.968 61.44 33.792 98.304 16.896 49.152 26.112 136.704 29.184 330.24 4.608 245.76 7.68 271.872 52.224 405.504 27.648 78.336 73.728 182.784 102.912 231.936 64.512 104.448 291.84 330.24 317.952 314.88 9.216-6.144 12.288-4.608 7.68 4.608-4.608 7.68 6.144 24.576 23.04 36.864 18.432 12.288 43.008 33.792 56.832 47.616 12.288 15.36 32.256 27.648 43.008 27.648s19.968 6.144 19.968 15.36c0 7.68 10.752 15.36 24.576 15.36 18.432 0 21.504 7.68 13.824 26.112-23.04 55.296-41.472 173.568-33.792 207.36 6.144 19.968 30.72 59.904 55.296 87.552l46.08 52.224-73.728 139.776c-39.936 76.8-81.408 164.352-92.16 193.536l-18.432 53.76-55.296-145.92c-50.688-132.096-148.992-313.344-199.68-365.568-10.752-10.752-19.968-24.576-19.968-30.72-1.536-18.432-96.768-118.272-161.28-167.424-79.872-61.44-227.328-135.168-314.88-158.208-38.4-10.752-90.624-32.256-118.272-47.616-26.112-16.896-95.232-39.936-153.6-52.224-56.832-12.288-112.128-32.256-121.344-46.08-9.216-12.288-38.4-23.04-66.048-23.04-43.008 0-47.616 4.608-47.616 47.616 0 46.08 52.224 152.064 73.728 152.064 6.144 0 27.648 27.648 49.152 61.44 19.968 33.792 43.008 61.44 50.688 61.44 30.72 0 202.752 227.328 316.416 417.792 32.256 55.296 49.152 66.048 86.016 58.368 7.68-1.536 10.752 1.536 4.608 7.68-12.288 12.288 18.432 43.008 118.272 118.272 92.16 69.12 101.376 76.8 130.56 115.2 69.12 87.552 130.56 265.728 144.384 416.256 4.608 55.296 18.432 107.52 32.256 119.808 12.288 13.824 23.04 33.792 23.04 46.08s10.752 21.504 24.576 21.504c12.288 0 18.432 7.68 12.288 16.896-4.608 9.216 9.216 33.792 30.72 52.224 38.4 32.256 43.008 49.152 50.688 172.032 4.608 75.264 3.072 196.608-3.072 271.872-10.752 129.024-12.288 133.632-38.4 105.984-13.824-15.36-24.576-29.184-23.04-32.256 3.072-3.072-18.432-56.832-47.616-119.808s-52.224-135.168-52.224-159.744-6.144-47.616-13.824-53.76c-7.68-4.608-19.968-46.08-24.576-92.16-6.144-47.616-16.896-89.088-24.576-93.696s-13.824-27.648-13.824-50.688c0-66.048-46.08-187.392-66.048-175.104-10.752 4.608-13.824 4.608-7.68-3.072 21.504-23.04-82.944-195.072-179.712-291.84-78.336-79.872-109.056-99.84-145.92-99.84-39.936 0-46.08 6.144-46.08 39.936 0 53.76 36.864 124.416 99.84 196.608 29.184 32.256 53.76 67.584 53.76 79.872s7.68 21.504 15.36 21.504c9.216 0 15.36 16.896 15.36 36.864 0 21.504 7.68 56.832 16.896 81.408 19.968 50.688 36.864 167.424 61.44 434.688 9.216 105.984 26.112 222.72 36.864 261.12s24.576 102.912 30.72 145.92c12.288 89.088 47.616 210.432 81.408 276.48 13.824 24.576 26.112 56.832 27.648 67.584 7.68 44.544 105.984 218.112 155.136 274.944L6528 6382.08v253.44c0 139.776 4.608 476.16 10.752 748.032l9.216 496.128h-3686.4l-6.144-219.648c-4.608-119.808-7.68-847.872-6.144-1615.872 0-1107.456 4.608-1416.192 19.968-1489.92 24.576-102.912 93.696-288.768 113.664-296.448 6.144-3.072 12.288-13.824 12.288-24.576 0-38.4 205.824-178.176 264.192-178.176 13.824 0 29.184-6.144 33.792-13.824 9.216-13.824 241.152-44.544 377.856-52.224l69.12-3.072 4.608-112.128 4.608-110.592H75.264l4.608 110.592 4.608 112.128 230.4 23.04c127.488 12.288 238.08 27.648 245.76 32.256 9.216 4.608 33.792 13.824 56.832 19.968 23.04 4.608 81.408 33.792 129.024 62.976 49.152 29.184 95.232 47.616 102.912 43.008 9.216-4.608 10.752-3.072 6.144 6.144-6.144 7.68 3.072 29.184 19.968 47.616 44.544 47.616 92.16 130.56 92.16 159.744 0 15.36 6.144 27.648 13.824 27.648 9.216 0 19.968 32.256 26.112 72.192 4.608 41.472 18.432 82.944 27.648 95.232 21.504 27.648 18.432 6936.576-3.072 6964.224-7.68 10.752-18.432 50.688-23.04 90.624-6.144 39.936-16.896 86.016-24.576 99.84-7.68 15.36-29.184 64.512-49.152 109.056-56.832 130.56-244.224 279.552-351.744 279.552-16.896 0-43.008 6.144-58.368 13.824-13.824 7.68-119.808 23.04-233.472 35.328l-207.36 19.968v215.04l1847.808 4.608 1846.272 3.072V12288c0-87.552-6.144-122.88-18.432-124.416-52.224-3.072-276.48-29.184-357.888-41.472-133.632-19.968-253.44-82.944-336.384-173.568-38.4-43.008-70.656-87.552-70.656-99.84s-6.144-21.504-15.36-21.504c-7.68 0-15.36-9.216-15.36-21.504s-13.824-55.296-32.256-96.768c-72.192-165.888-76.8-256.512-84.48-1317.888-3.072-549.888-1.536-1277.952 6.144-1620.48l10.752-622.08 1720.32-9.216c946.176-6.144 1774.08-6.144 1838.592-1.536l118.272 7.68-3.072 1691.136c-4.608 1540.608-6.144 1698.816-30.72 1780.224-13.824 49.152-26.112 105.984-26.112 125.952 0 21.504-6.144 38.4-15.36 38.4-7.68 0-15.36 13.824-15.36 32.256 0 47.616-70.656 159.744-129.024 204.288-44.544 33.792-139.776 81.408-231.936 118.272-16.896 6.144-72.192 15.36-122.88 19.968-50.688 6.144-132.096 18.432-181.248 27.648l-89.088 18.432 4.608 101.376 4.608 99.84 1751.04 1.536c963.072 0 1774.08-1.536 1801.728-6.144l49.152-6.144v-222.72l-93.696-10.752c-52.224-4.608-135.168-9.216-185.856-9.216-49.152 0-101.376-6.144-116.736-13.824-13.824-9.216-50.688-19.968-79.872-24.576-116.736-18.432-353.28-236.544-353.28-322.56 0-21.504-6.144-38.4-15.36-38.4-7.68 0-15.36-16.896-15.36-36.864 0-21.504-9.216-47.616-19.968-58.368s-21.504-47.616-23.04-81.408c-3.072-33.792-12.288-102.912-21.504-153.6-12.288-66.048-16.896-1022.976-16.896-3380.736 1.536-3373.056 4.608-3522.048 59.904-3629.568 12.288-21.504 21.504-52.224 21.504-67.584 0-13.824 7.68-26.112 16.896-26.112 10.752 0 13.824-13.824 9.216-32.256s-4.608-27.648 0-23.04c13.824 13.824 66.048-70.656 55.296-89.088-4.608-9.216-4.608-12.288 3.072-6.144 6.144 6.144 30.72-1.536 52.224-16.896 67.584-46.08 170.496-93.696 201.216-93.696 16.896 0 30.72-6.144 30.72-13.824 0-6.144 64.512-18.432 142.848-24.576 357.888-27.648 356.352-27.648 360.96-69.12 3.072-21.504 12.288-44.544 19.968-52.224 7.68-9.216 13.824-41.472 13.824-73.728V3763.2h-96.768c-90.624 0-179.712-24.576-179.712-50.688 0-6.144 23.04-10.752 52.224-10.752 33.792 0 69.12-13.824 99.84-39.936l47.616-39.936v-164.352c0-145.92-4.608-173.568-38.4-241.152-87.552-172.032-179.712-227.328-367.104-218.112-64.512 3.072-118.272-1.536-121.344-7.68-1.536-7.68-27.648-18.432-56.832-24.576-64.512-12.288-73.728-36.864-23.04-59.904 21.504-10.752 38.4-30.72 38.4-47.616s13.824-38.4 32.256-47.616c18.432-10.752 27.648-27.648 23.04-39.936s-3.072-19.968 4.608-15.36c19.968 12.288 127.488-110.592 115.2-132.096-6.144-10.752-4.608-12.288 6.144-6.144 9.216 6.144 53.76-16.896 96.768-52.224 43.008-33.792 84.48-61.44 92.16-61.44s13.824-24.576 13.824-55.296c0-29.184-6.144-50.688-13.824-46.08-7.68 6.144-16.896 3.072-19.968-4.608-3.072-10.752-79.872-9.216-211.968 0-218.112 16.896-321.024 12.288-387.072-18.432-35.328-15.36-38.4-23.04-26.112-55.296 7.68-19.968 13.824-53.76 13.824-75.264 0-19.968 7.68-36.864 15.36-36.864 9.216 0 15.36-10.752 15.36-23.04s7.68-23.04 16.896-23.04c12.288 0 15.36-19.968 7.68-58.368-4.608-30.72-1.536-113.664 9.216-182.784 13.824-109.056 13.824-129.024-7.68-148.992-35.328-36.864-64.512-30.72-224.256 44.544-81.408 36.864-213.504 92.16-293.376 121.344-201.216 72.192-251.904 92.16-261.12 102.912-4.608 4.608-29.184 19.968-56.832 32.256-46.08 23.04-49.152 23.04-56.832-9.216-4.608-16.896-9.216-61.44-9.216-98.304 0-55.296-18.432-113.664-46.08-141.312-4.608-4.608-9.216-18.432-12.288-30.72-13.824-59.904-109.056-196.608-211.968-301.056-101.376-102.912-122.88-118.272-181.248-124.416-64.512-7.68-66.048-6.144-76.8 41.472m179.712 98.304c76.8 72.192 86.016 87.552 73.728 118.272-13.824 35.328-13.824 35.328-26.112 6.144-16.896-46.08-67.584-115.2-84.48-115.2-21.504 0-16.896 26.112 10.752 52.224 12.288 13.824 16.896 24.576 7.68 24.576-18.432 0-109.056-89.088-109.056-109.056 0-7.68 7.68-13.824 16.896-13.824 12.288 0 12.288-7.68-1.536-23.04-15.36-18.432-15.36-23.04 1.536-23.04 12.288 0 61.44 38.4 110.592 82.944m-35.328 215.04c-9.216 12.288-29.184 18.432-41.472 13.824-21.504-9.216-21.504-12.288 4.608-21.504 46.08-18.432 56.832-15.36 36.864 7.68m-1171.968 18.432c-4.608 4.608-18.432 6.144-29.184 1.536-12.288-4.608-7.68-9.216 9.216-9.216 16.896-1.536 26.112 3.072 19.968 7.68m138.24 0c-4.608 4.608-18.432 6.144-29.184 1.536-12.288-4.608-7.68-9.216 9.216-9.216 16.896-1.536 26.112 3.072 19.968 7.68m-81.408 153.6c9.216 0 29.184 3.072 44.544 3.072 13.824 1.536 26.112 15.36 26.112 29.184 0 15.36 12.288 47.616 27.648 73.728 15.36 24.576 44.544 96.768 64.512 158.208l35.328 112.128 70.656-10.752c99.84-13.824 118.272-27.648 129.024-90.624 9.216-61.44 33.792-90.624 86.016-107.52 32.256-9.216 35.328-6.144 29.184 19.968-4.608 18.432-1.536 35.328 7.68 38.4s15.36 46.08 15.36 99.84c-1.536 78.336 3.072 95.232 27.648 102.912 32.256 10.752 116.736-46.08 130.56-87.552 4.608-15.36 15.36-27.648 23.04-27.648 16.896 0 18.432 19.968 0 38.4-6.144 9.216-30.72 67.584-52.224 130.56s-50.688 142.848-66.048 176.64c-13.824 33.792-27.648 92.16-29.184 130.56s-7.68 86.016-13.824 107.52c-12.288 44.544 55.296 162.816 102.912 178.176q27.648 9.216 18.432 36.864c-6.144 16.896 0 33.792 15.36 41.472 13.824 9.216 24.576 38.4 26.112 78.336 1.536 38.4 7.68 58.368 13.824 46.08 9.216-15.36 13.824-13.824 21.504 3.072 12.288 35.328 95.232 35.328 104.448 0 3.072-15.36 0-35.328-7.68-43.008s-16.896-47.616-19.968-89.088c-3.072-55.296 3.072-84.48 24.576-112.128 15.36-19.968 24.576-41.472 21.504-47.616-4.608-7.68 0-32.256 10.752-53.76 16.896-36.864 19.968-38.4 29.184-12.288 4.608 15.36 3.072 39.936-4.608 56.832-7.68 15.36-12.288 39.936-7.68 56.832 4.608 15.36 0 30.72-7.68 32.256-10.752 4.608-9.216 18.432 3.072 43.008 27.648 53.76 27.648 53.76 61.44 23.04 30.72-27.648 30.72-27.648 32.256 62.976 0 49.152 1.536 122.88 3.072 162.816 3.072 47.616-1.536 73.728-13.824 73.728-9.216 0-35.328 35.328-56.832 78.336-30.72 62.976-35.328 86.016-21.504 107.52 9.216 15.36 13.824 29.184 10.752 32.256-4.608 3.072-29.184 19.968-55.296 38.4l-47.616 33.792-32.256-43.008c-16.896-24.576-50.688-49.152-73.728-53.76-66.048-16.896-436.224-339.456-436.224-380.928 0-13.824-10.752-32.256-23.04-43.008-59.904-49.152-161.28-347.136-161.28-470.016 0-49.152 6.144-81.408 13.824-75.264 7.68 4.608 18.432 1.536 24.576-6.144 4.608-7.68-3.072-21.504-16.896-29.184-21.504-12.288-26.112-38.4-24.576-165.888 3.072-125.952-3.072-170.496-35.328-258.048-19.968-56.832-49.152-118.272-64.512-135.168-32.256-36.864-138.24-93.696-178.176-96.768-32.256-3.072-61.44-39.936-44.544-56.832 32.256-30.72 90.624-18.432 155.136 33.792 36.864 29.184 75.264 53.76 84.48 55.296m182.784-89.088c12.288 10.752 32.256 15.36 46.08 10.752 41.472-16.896 210.432 89.088 210.432 132.096 0 35.328-24.576 38.4-43.008 4.608-19.968-35.328-39.936-18.432-64.512 53.76-23.04 72.192-41.472 78.336-61.44 24.576-7.68-21.504-21.504-38.4-30.72-38.4-7.68 0-15.36-10.752-15.36-24.576 0-16.896 9.216-23.04 29.184-16.896 16.896 3.072 47.616-4.608 69.12-19.968 50.688-32.256 27.648-58.368-47.616-52.224-27.648 1.536-50.688-3.072-50.688-10.752s-10.752-13.824-23.04-13.824-23.04-7.68-23.04-15.36c0-18.432-50.688-19.968-69.12-1.536-9.216 7.68-30.72-1.536-52.224-23.04l-38.4-35.328 70.656 4.608c39.936 1.536 81.408 12.288 93.696 21.504m36.864 119.808c-4.608 4.608-18.432 6.144-29.184 1.536-12.288-4.608-7.68-9.216 9.216-9.216 16.896-1.536 26.112 3.072 19.968 7.68m1906.176 19.968c-10.752 16.896-24.576 26.112-30.72 21.504-15.36-7.68 15.36-50.688 35.328-50.688 7.68 0 6.144 13.824-4.608 29.184m-1634.304 39.936c-6.144 12.288-15.36 18.432-23.04 13.824-21.504-12.288-15.36-36.864 9.216-36.864 13.824 0 18.432 9.216 13.824 23.04m1606.656 66.048c0 7.68-10.752 36.864-24.576 62.976-21.504 41.472-21.504 56.832-6.144 86.016 10.752 19.968 27.648 35.328 36.864 33.792s15.36 9.216 12.288 24.576c-6.144 32.256 24.576 75.264 44.544 64.512 6.144-4.608 9.216-18.432 3.072-30.72q-16.128-46.08 27.648 4.608c19.968 23.04 21.504 33.792 6.144 55.296-18.432 24.576-21.504 24.576-46.08 0-19.968-19.968-32.256-23.04-52.224-10.752-15.36 9.216-58.368 13.824-95.232 9.216-61.44-7.68-72.192-3.072-95.232 30.72-13.824 21.504-43.008 58.368-66.048 82.944-21.504 23.04-61.44 73.728-87.552 112.128-69.12 101.376-256.512 334.848-340.992 422.4-41.472 41.472-75.264 82.944-76.8 92.16-1.536 7.68-4.608 23.04-4.608 33.792-1.536 9.216-13.824 19.968-27.648 23.04-18.432 3.072-27.648 26.112-32.256 81.408-4.608 64.512-15.36 86.016-66.048 135.168-62.976 59.904-67.584 69.12-52.224 109.056 12.288 30.72 36.864 32.256 36.864 1.536 0-12.288 23.04-32.256 50.688-44.544 46.08-18.432 76.8-43.008 205.824-162.816 27.648-26.112 56.832-46.08 66.048-46.08 7.68 0 15.36-7.68 15.36-16.896 0-7.68 6.144-12.288 13.824-7.68 13.824 9.216 53.76-30.72 67.584-67.584 6.144-15.36 9.216-12.288 9.216 10.752 1.536 24.576 10.752 32.256 36.864 30.72 18.432-1.536 41.472-12.288 50.688-23.04 16.896-23.04 82.944-12.288 82.944 12.288 0 21.504-78.336 76.8-110.592 76.8-38.4 0-121.344 86.016-109.056 115.2 4.608 12.288-3.072 27.648-16.896 32.256s-24.576 21.504-24.576 36.864c0 32.256 76.8 64.512 107.52 46.08 10.752-7.68 35.328-7.68 53.76 0 101.376 38.4 491.52-59.904 473.088-118.272-3.072-9.216 7.68-26.112 26.112-35.328 16.896-9.216 27.648-23.04 23.04-30.72s15.36-24.576 44.544-36.864c58.368-24.576 79.872-39.936 138.24-99.84 32.256-30.72 39.936-33.792 59.904-15.36s16.896 23.04-21.504 39.936c-50.688 21.504-59.904 66.048-13.824 66.048 39.936 0 138.24-39.936 138.24-56.832 0-26.112-26.112-49.152-66.048-58.368-32.256-9.216-41.472-19.968-38.4-44.544 4.608-27.648 13.824-32.256 78.336-30.72 78.336 1.536 87.552 6.144 93.696 41.472 4.608 39.936 41.472 72.192 79.872 72.192 24.576 0 36.864 9.216 36.864 24.576 0 19.968-10.752 23.04-52.224 16.896-47.616-7.68-56.832-3.072-92.16 49.152-21.504 30.72-39.936 61.44-39.936 67.584s38.4 6.144 84.48 1.536c90.624-10.752 109.056 4.608 52.224 46.08-18.432 12.288-27.648 29.184-21.504 38.4 6.144 10.752-4.608 16.896-26.112 18.432-33.792 0-33.792 1.536-4.608 12.288 16.896 7.68 39.936 9.216 50.688 6.144 9.216-4.608 18.432 0 18.432 10.752 0 27.648 110.592 10.752 156.672-23.04q32.256-25.344 9.216-18.432c-15.36 6.144-30.72 3.072-35.328-4.608-6.144-9.216-1.536-15.36 9.216-15.36 12.288 0 12.288-6.144 1.536-19.968-21.504-26.112-6.144-87.552 19.968-78.336 32.256 12.288 41.472-41.472 12.288-64.512-24.576-18.432-19.968-19.968 36.864-21.504 43.008 0 69.12-7.68 78.336-24.576 10.752-19.968 18.432-16.896 43.008 19.968 59.904 89.088 70.656 122.88 75.264 242.688 6.144 115.2 3.072 125.952-33.792 164.352-23.04 24.576-49.152 43.008-58.368 43.008s-35.328-26.112-55.296-58.368c-32.256-49.152-49.152-59.904-129.024-75.264-92.16-19.968-242.688-7.68-350.208 26.112-29.184 9.216-55.296 9.216-75.264-1.536s-27.648-10.752-21.504-1.536c10.752 18.432-44.544 39.936-66.048 26.112-7.68-4.608-18.432-1.536-24.576 7.68s-32.256 3.072-72.192-16.896c-33.792-16.896-72.192-27.648-86.016-21.504-19.968 7.68-21.504 12.288-4.608 21.504 12.288 7.68 15.36 21.504 9.216 32.256-9.216 13.824-13.824 13.824-23.04 0-18.432-29.184-112.128-6.144-153.6 38.4l-35.328 38.4 36.864 3.072c19.968 0 49.152 1.536 64.512 0 13.824-1.536 26.112 4.608 26.112 12.288 0 9.216-9.216 15.36-21.504 15.36s-33.792 10.752-47.616 24.576c-18.432 19.968-29.184 21.504-46.08 6.144-18.432-15.36-23.04-13.824-23.04 6.144 0 55.296-168.96 82.944-284.16 47.616-95.232-30.72-155.136-21.504-168.96 24.576-9.216 27.648-18.432 30.72-58.368 21.504-27.648-4.608-75.264-13.824-107.52-18.432-69.12-9.216-82.944-27.648-50.688-64.512 13.824-15.36 24.576-38.4 24.576-50.688 0-13.824 10.752-32.256 23.04-43.008s23.04-27.648 23.04-38.4c0-9.216 18.432-26.112 41.472-36.864 33.792-15.36 36.864-21.504 18.432-33.792-32.256-19.968-72.192-16.896-86.016 7.68-12.288 23.04-195.072 147.456-215.04 147.456-6.144 0-26.112 15.36-44.544 32.256l-35.328 32.256-29.184-49.152c-30.72-49.152-29.184-87.552 7.68-162.816 43.008-86.016 129.024-268.8 155.136-331.776 21.504-50.688 38.4-70.656 53.76-64.512s26.112-16.896 41.472-86.016c10.752-50.688 27.648-98.304 38.4-104.448 27.648-15.36 64.512-107.52 75.264-185.856 6.144-36.864 21.504-87.552 33.792-113.664 16.896-30.72 21.504-66.048 15.36-102.912-6.144-39.936-3.072-62.976 12.288-75.264 26.112-21.504 41.472-90.624 23.04-102.912-7.68-4.608-13.824-26.112-13.824-47.616 0-33.792 16.896-62.976 93.696-155.136 9.216-10.752 29.184-15.36 47.616-9.216 16.896 4.608 47.616 0 67.584-10.752 27.648-13.824 41.472-15.36 55.296-1.536 12.288 12.288 4.608 19.968-27.648 27.648-62.976 16.896-116.736 72.192-110.592 115.2 3.072 30.72 13.824 35.328 66.048 38.4 53.76 1.536 161.28-46.08 161.28-70.656 0-15.36-23.04-41.472-49.152-55.296-18.432-10.752-21.504-19.968-10.752-36.864 12.288-19.968 16.896-19.968 30.72 3.072 7.68 15.36 21.504 27.648 30.72 27.648 7.68 0 32.256 18.432 50.688 41.472 32.256 36.864 43.008 39.936 79.872 27.648 43.008-15.36 53.76-50.688 12.288-41.472-12.288 3.072-21.504-3.072-21.504-12.288 0-7.68 16.896-15.36 35.328-15.36 41.472 0 70.656-29.184 107.52-112.128 23.04-50.688 56.832-76.8 56.832-44.544m-1496.064 121.344c-15.36 15.36-29.184-7.68-15.36-27.648 9.216-16.896 12.288-16.896 18.432 0 3.072 10.752 1.536 23.04-3.072 27.648m-536.064 122.88c-4.608 15.36-7.68 3.072-7.68-26.112s3.072-41.472 7.68-27.648c3.072 15.36 3.072 39.936 0 53.76m2876.928 153.6c0 4.608-10.752 4.608-23.04-1.536-12.288-4.608-27.648 1.536-33.792 10.752-13.824 23.04-118.272 102.912-133.632 102.912-6.144 0-6.144-9.216 1.536-19.968 6.144-9.216 13.824-32.256 15.36-47.616 6.144-39.936 10.752-43.008 76.8-55.296 56.832-9.216 96.768-4.608 96.768 10.752m-230.4 64.512c0 9.216-6.144 19.968-15.36 24.576-7.68 4.608-15.36-1.536-15.36-13.824 0-13.824 7.68-24.576 15.36-24.576 9.216 0 15.36 6.144 15.36 13.824m-49.152 61.44c4.608 12.288-1.536 18.432-13.824 13.824-10.752-3.072-23.04-15.36-26.112-26.112-4.608-12.288 1.536-18.432 13.824-13.824 10.752 3.072 23.04 15.36 26.112 26.112m-2597.376 112.128c-3.072 19.968-6.144 7.68-6.144-26.112-1.536-33.792 1.536-49.152 6.144-35.328 3.072 15.36 3.072 43.008 0 61.44m2362.368 12.288c-4.608 7.68-16.896 15.36-24.576 15.36-9.216 0-10.752-7.68-6.144-15.36 4.608-9.216 16.896-15.36 24.576-15.36 9.216 0 10.752 6.144 6.144 15.36m-99.84 115.2c-10.752 13.824-23.04 19.968-26.112 16.896-10.752-10.752 10.752-39.936 29.184-39.936 9.216 0 9.216 9.216-3.072 23.04m-1105.92 144.384c0 13.824-36.864 32.256-62.976 32.256-7.68 0-13.824-10.752-13.824-23.04 0-13.824 13.824-23.04 38.4-23.04 21.504 0 38.4 6.144 38.4 13.824m1671.168 132.096c26.112 29.184 27.648 38.4 10.752 38.4-12.288 0-23.04-7.68-23.04-15.36 0-9.216-23.04-26.112-49.152-38.4-49.152-21.504-49.152-21.504-10.752-23.04 23.04 0 52.224 15.36 72.192 38.4m79.872 69.12c0 7.68-6.144 15.36-15.36 15.36-7.68 0-15.36-7.68-15.36-15.36 0-9.216 7.68-15.36 15.36-15.36 9.216 0 15.36 6.144 15.36 15.36m179.712 264.192c-4.608 10.752-7.68 3.072-7.68-18.432s3.072-29.184 7.68-19.968c3.072 10.752 3.072 29.184 0 38.4m-10.752 170.496c0 3.072-15.36 18.432-33.792 35.328l-35.328 29.184 29.184-35.328c27.648-32.256 39.936-41.472 39.936-29.184m-8113.152 205.824c-32.256 3.072-87.552 3.072-122.88 0-36.864-3.072-10.752-6.144 56.832-6.144s96.768 3.072 66.048 6.144m105.984-1.536c-4.608 4.608-18.432 6.144-29.184 1.536-12.288-4.608-7.68-9.216 9.216-9.216 16.896-1.536 26.112 3.072 19.968 7.68m316.416 1.536c-10.752 3.072-29.184 3.072-38.4 0-10.752-4.608-3.072-7.68 18.432-7.68s29.184 3.072 19.968 7.68m5511.168 142.848c39.936 23.04 38.4 67.584-3.072 56.832-18.432-4.608-33.792 0-39.936 13.824-6.144 16.896-15.36 12.288-38.4-16.896-15.36-21.504-24.576-44.544-19.968-53.76 12.288-19.968 62.976-19.968 101.376 0m1284.096 740.352c-4.608 12.288-9.216 7.68-9.216-9.216-1.536-16.896 3.072-26.112 7.68-19.968 4.608 4.608 6.144 18.432 1.536 29.184m-7265.28 168.96c-4.608 10.752-7.68 3.072-7.68-18.432s3.072-29.184 7.68-19.968c3.072 10.752 3.072 29.184 0 38.4m1735.68 176.64c-3.072 32.256-6.144 9.216-6.144-49.152 0-59.904 3.072-84.48 6.144-58.368 3.072 27.648 3.072 76.8 0 107.52m3778.56 176.64c-3.072 19.968-6.144 4.608-6.144-33.792s3.072-53.76 6.144-35.328c3.072 19.968 3.072 50.688 0 69.12m-3778.56 170.496c-3.072 35.328-4.608 1.536-4.608-73.728 0-76.8 1.536-104.448 4.608-64.512s3.072 102.912 0 138.24m3574.272 95.232c4.608 12.288 1.536 23.04-6.144 23.04-9.216 0-15.36-10.752-15.36-23.04s3.072-23.04 6.144-23.04 9.216 10.752 15.36 23.04m-3574.272 632.832c-1.536 90.624-4.608 19.968-4.608-156.672 0-178.176 3.072-251.904 4.608-165.888 3.072 86.016 3.072 231.936 0 322.56m5514.24-268.8c-3.072 19.968-6.144 4.608-6.144-33.792s3.072-53.76 6.144-35.328c3.072 19.968 3.072 50.688 0 69.12m0 184.32c-4.608 10.752-7.68 3.072-7.68-18.432s3.072-29.184 7.68-19.968c3.072 10.752 3.072 29.184 0 38.4m-7249.92 0c-4.608 12.288-9.216 7.68-9.216-9.216-1.536-16.896 3.072-26.112 7.68-19.968 4.608 4.608 6.144 18.432 1.536 29.184m7249.92 324.096c-3.072 35.328-4.608 1.536-4.608-73.728 0-76.8 1.536-104.448 4.608-64.512s3.072 102.912 0 138.24m-5514.24 282.624c-3.072 58.368-4.608 10.752-4.608-102.912s1.536-161.28 4.608-104.448c3.072 58.368 3.072 150.528 0 207.36m5514.24 24.576c-3.072 35.328-4.608 1.536-4.608-73.728 0-76.8 1.536-104.448 4.608-64.512s3.072 102.912 0 138.24m-1426.944-93.696c21.504 21.504 24.576 64.512 3.072 50.688s-49.152-69.12-33.792-69.12c6.144 0 19.968 7.68 30.72 18.432m-339.456 261.12c-3.072 19.968-6.144 7.68-6.144-26.112-1.536-33.792 1.536-49.152 6.144-35.328 3.072 15.36 3.072 43.008 0 61.44m0 153.6c-3.072 19.968-6.144 4.608-6.144-33.792s3.072-53.76 6.144-35.328c3.072 19.968 3.072 50.688 0 69.12m557.568 3.072c0 9.216-13.824 0-30.72-18.432s-30.72-41.472-30.72-52.224c0-21.504 59.904 47.616 61.44 70.656m1208.832 104.448c-3.072 27.648-6.144 9.216-6.144-41.472s3.072-73.728 6.144-50.688 3.072 64.512 0 92.16m-1766.4 92.16c-4.608 12.288-9.216 7.68-9.216-9.216-1.536-16.896 3.072-26.112 7.68-19.968 4.608 4.608 6.144 18.432 1.536 29.184m1766.4 138.24c-3.072 19.968-6.144 4.608-6.144-33.792s3.072-53.76 6.144-35.328c3.072 19.968 3.072 50.688 0 69.12m0 437.76c-3.072 24.576-6.144 7.68-6.144-33.792 0-43.008 3.072-61.44 6.144-43.008 3.072 19.968 3.072 53.76 0 76.8m0 637.44c-1.536 112.128-4.608 24.576-4.608-195.072s3.072-311.808 4.608-204.288c3.072 107.52 3.072 287.232 0 399.36m-3170.304-483.84c-19.968 3.072-50.688 3.072-69.12 0-19.968-3.072-4.608-6.144 33.792-6.144s53.76 3.072 35.328 6.144m606.72 0c-49.152 3.072-129.024 3.072-176.64 0-49.152-3.072-9.216-4.608 87.552-4.608s136.704 1.536 89.088 4.608m522.24 0c-23.04 3.072-64.512 3.072-92.16 0s-9.216-6.144 41.472-6.144 73.728 3.072 50.688 6.144m99.84 0c-10.752 3.072-29.184 3.072-38.4 0-10.752-4.608-3.072-7.68 18.432-7.68s29.184 3.072 19.968 7.68m-122.88 199.68c-87.552 3.072-228.864 3.072-314.88 0-87.552-1.536-16.896-4.608 156.672-4.608s244.224 3.072 158.208 4.608m261.12 0c-10.752 3.072-29.184 3.072-38.4 0-10.752-4.608-3.072-7.68 18.432-7.68s29.184 3.072 19.968 7.68m-3695.616 330.24c-4.608 12.288-9.216 7.68-9.216-9.216-1.536-16.896 3.072-26.112 7.68-19.968 4.608 4.608 6.144 18.432 1.536 29.184m0 161.28c-4.608 15.36-7.68 6.144-7.68-18.432 0-26.112 3.072-36.864 7.68-27.648 3.072 10.752 3.072 32.256 0 46.08m3732.48 38.4c-4.608 12.288-9.216 7.68-9.216-9.216-1.536-16.896 3.072-26.112 7.68-19.968 4.608 4.608 6.144 18.432 1.536 29.184m1766.4 353.28c-3.072 36.864-6.144 10.752-6.144-56.832s3.072-96.768 6.144-66.048c3.072 32.256 3.072 87.552 0 122.88m-5514.24 314.88c-3.072 49.152-4.608 9.216-4.608-87.552s1.536-136.704 4.608-89.088c3.072 49.152 3.072 129.024 0 176.64m-1735.68-69.12c-3.072 19.968-6.144 4.608-6.144-33.792s3.072-53.76 6.144-35.328c3.072 19.968 3.072 50.688 0 69.12m0 222.72c-4.608 15.36-7.68 3.072-7.68-26.112s3.072-41.472 7.68-27.648c3.072 15.36 3.072 39.936 0 53.76m1735.68 631.296c-1.536 124.416-4.608 18.432-4.608-235.008s3.072-354.816 4.608-225.792c3.072 129.024 3.072 336.384 0 460.8m-1735.68-516.096c-4.608 10.752-7.68 3.072-7.68-18.432s3.072-29.184 7.68-19.968c3.072 10.752 3.072 29.184 0 38.4m7249.92 453.12c-4.608 15.36-7.68 6.144-7.68-18.432 0-26.112 3.072-36.864 7.68-27.648 3.072 10.752 3.072 32.256 0 46.08m0 84.48c-4.608 10.752-7.68 3.072-7.68-18.432s3.072-29.184 7.68-19.968c3.072 10.752 3.072 29.184 0 38.4m-7249.92 391.68c-3.072 49.152-4.608 12.288-4.608-79.872 0-93.696 1.536-133.632 4.608-89.088s3.072 119.808 0 168.96m5483.52-30.72c-4.608 15.36-7.68 3.072-7.68-26.112s3.072-41.472 7.68-27.648c3.072 15.36 3.072 39.936 0 53.76m-3747.84-7.68c-4.608 10.752-7.68 3.072-7.68-18.432s3.072-29.184 7.68-19.968c3.072 10.752 3.072 29.184 0 38.4m0 591.36c-3.072 56.832-4.608 13.824-4.608-95.232 0-110.592 1.536-156.672 4.608-104.448s3.072 142.848 0 199.68m6466.56 1244.16c-4.608 15.36-7.68 6.144-7.68-18.432 0-26.112 3.072-36.864 7.68-27.648 3.072 10.752 3.072 32.256 0 46.08m-107.52 75.264c-4.608 4.608-18.432 6.144-29.184 1.536-12.288-4.608-7.68-9.216 9.216-9.216 16.896-1.536 26.112 3.072 19.968 7.68"/><path d="M6658.56 2380.8c-4.608 7.68 1.536 15.36 13.824 15.36 13.824 0 24.576 10.752 24.576 24.576 0 30.72 24.576 13.824 35.328-24.576 6.144-24.576 0-30.72-27.648-30.72-19.968 0-41.472 6.144-46.08 15.36M7042.56 3073.536c-6.144 9.216-7.68 19.968-3.072 24.576 10.752 10.752 41.472-9.216 41.472-27.648s-26.112-18.432-38.4 3.072M7802.88 2409.984c-9.216 18.432-10.752 32.256-1.536 32.256 15.36 0 36.864-46.08 26.112-56.832-3.072-4.608-13.824 7.68-24.576 24.576M8501.76 3287.04c6.144 9.216 16.896 12.288 24.576 7.68 21.504-13.824 16.896-23.04-10.752-23.04-12.288 0-18.432 7.68-13.824 15.36M9116.16 3317.76c4.608 7.68 12.288 15.36 16.896 15.36 3.072 0 6.144-7.68 6.144-15.36 0-9.216-7.68-15.36-16.896-15.36-7.68 0-10.752 6.144-6.144 15.36M9139.2 3359.232c0 6.144 7.68 23.04 15.36 35.328 12.288 19.968 15.36 19.968 15.36-3.072 0-13.824-6.144-30.72-15.36-35.328-7.68-4.608-15.36-4.608-15.36 3.072M8440.32 3502.08c-4.608 7.68-1.536 15.36 6.144 15.36 9.216 0 16.896-7.68 16.896-15.36 0-9.216-3.072-15.36-6.144-15.36-4.608 0-12.288 6.144-16.896 15.36M7480.32 3514.368c0 23.04 49.152 36.864 67.584 18.432 10.752-10.752 10.752-15.36-1.536-15.36-9.216 0-27.648-4.608-41.472-9.216s-24.576-3.072-24.576 6.144M8916.48 2474.496c-13.824 21.504-3.072 30.72 21.504 15.36q18.432-13.824 4.608-23.04c-9.216-4.608-21.504-1.536-26.112 7.68M15306.24 5056.512c-13.824 23.04-30.72 43.008-39.936 43.008-7.68 0-13.824 19.968-13.824 46.08 0 56.832-27.648 184.32-46.08 215.04-12.288 19.968-19.968 19.968-47.616 3.072-18.432-12.288-50.688-24.576-73.728-27.648-21.504-4.608-70.656-21.504-107.52-38.4-41.472-19.968-89.088-29.184-130.56-26.112l-62.976 4.608 3.072 73.728c1.536 41.472 12.288 101.376 26.112 135.168 35.328 89.088 33.792 95.232-38.4 86.016-33.792-4.608-99.84-4.608-145.92 0-78.336 9.216-82.944 10.752-82.944 52.224 0 43.008 46.08 105.984 76.8 105.984 27.648 0 122.88 69.12 122.88 87.552 0 12.288-21.504 19.968-59.904 19.968-59.904 0-105.984 30.72-159.744 107.52-36.864 53.76-35.328 221.184 3.072 284.16 30.72 52.224 53.76 175.104 35.328 201.216-6.144 9.216-21.504 19.968-33.792 24.576-29.184 10.752-107.52 161.28-107.52 207.36 0 23.04-15.36 43.008-44.544 56.832-49.152 26.112-62.976 52.224-62.976 122.88 0 27.648-7.68 56.832-16.896 66.048-19.968 19.968-10.752 130.56 21.504 258.048 13.824 50.688 27.648 110.592 32.256 132.096s24.576 58.368 46.08 81.408c33.792 39.936 43.008 43.008 119.808 36.864 81.408-6.144 82.944-6.144 76.8 33.792-3.072 21.504-18.432 56.832-33.792 76.8l-29.184 38.4-73.728-79.872c-72.192-78.336-156.672-127.488-219.648-127.488-27.648 0-30.72 9.216-30.72 119.808 0 101.376 4.608 122.88 30.72 141.312 30.72 21.504 41.472 61.44 18.432 61.44s-105.984-46.08-125.952-69.12c-10.752-12.288-27.648-23.04-36.864-23.04-10.752 0-44.544-24.576-76.8-55.296-56.832-53.76-58.368-58.368-50.688-133.632 6.144-43.008 15.36-81.408 23.04-86.016s19.968-55.296 24.576-113.664c6.144-56.832 16.896-102.912 24.576-102.912 26.112 0 46.08-101.376 36.864-185.856l-9.216-87.552-79.872-9.216c-43.008-6.144-127.488-13.824-188.928-19.968l-110.592-9.216-19.968 44.544c-23.04 53.76-39.936 67.584-86.016 67.584-19.968 0-61.44 21.504-93.696 46.08-32.256 26.112-84.48 50.688-118.272 56.832-32.256 4.608-69.12 15.36-78.336 24.576-23.04 16.896-26.112 153.6-6.144 192 15.36 30.72-6.144 67.584-47.616 84.48-33.792 12.288-36.864 107.52-6.144 167.424 18.432 35.328 18.432 41.472 0 49.152-30.72 12.288-27.648 115.2 7.68 178.176 18.432 35.328 44.544 58.368 76.8 67.584 35.328 9.216 47.616 23.04 47.616 47.616 0 18.432 10.752 55.296 24.576 82.944 23.04 44.544 30.72 49.152 84.48 46.08 32.256-3.072 62.976 0 69.12 6.144s30.72 10.752 53.76 10.752c30.72 0 49.152-12.288 64.512-43.008 61.44-116.736 73.728-133.632 105.984-141.312 23.04-6.144 39.936-26.112 50.688-64.512l15.36-56.832 69.12 53.76c38.4 29.184 93.696 67.584 122.88 82.944 29.184 16.896 64.512 36.864 76.8 44.544s44.544 21.504 69.12 32.256c82.944 33.792 92.16 41.472 96.768 73.728q4.608 32.256 50.688 41.472c38.4 9.216 43.008 13.824 27.648 33.792-46.08 53.76-211.968 158.208-268.8 165.888-32.256 6.144-156.672 0-274.944-13.824-182.784-19.968-542.208-23.04-2406.912-24.576H9200.64v210.432l204.288 16.896c224.256 19.968 242.688 23.04 264.192 36.864 9.216 4.608 36.864 12.288 61.44 13.824 55.296 7.68 271.872 109.056 342.528 162.816 58.368 43.008 156.672 184.32 156.672 222.72 0 15.36 4.608 27.648 12.288 27.648 13.824 0 44.544 116.736 75.264 284.16 18.432 101.376 24.576 422.4 32.256 1797.12l10.752 1674.24 864.768 4.608c814.08 3.072 863.232 1.536 864.768-23.04V10790.4c-1.536-1814.016 4.608-2093.568 52.224-2191.872 30.72-61.44 110.592-122.88 211.968-162.816 73.728-27.648 554.496-39.936 701.952-18.432 190.464 27.648 368.64 76.8 506.88 138.24 79.872 35.328 161.28 67.584 181.248 72.192 18.432 4.608 33.792 13.824 33.792 19.968 0 7.68 15.36 18.432 33.792 24.576 43.008 12.288 173.568 109.056 238.08 173.568 26.112 24.576 52.224 41.472 58.368 35.328 7.68-6.144 7.68-3.072 3.072 6.144-10.752 19.968 32.256 86.016 49.152 76.8 6.144-4.608 12.288 0 12.288 10.752s29.184 64.512 64.512 121.344c76.8 127.488 185.856 356.352 185.856 394.752 0 9.216 6.144 29.184 13.824 44.544 21.504 41.472 46.08 145.92 89.088 379.392 36.864 195.072 41.472 250.368 41.472 599.04 0 382.464-3.072 410.112-66.048 737.28-7.68 33.792-19.968 81.408-30.72 104.448-9.216 24.576-16.896 59.904-16.896 81.408 0 19.968-6.144 36.864-15.36 36.864-7.68 0-15.36 18.432-15.36 41.472s-39.936 121.344-87.552 218.112c-49.152 98.304-86.016 184.32-84.48 190.464 1.536 7.68-3.072 9.216-12.288 3.072-7.68-4.608-15.36-3.072-15.36 4.608 0 6.144-41.472 61.44-92.16 122.88-50.688 59.904-92.16 112.128-92.16 116.736 0 12.288-46.08 56.832-112.128 105.984-32.256 24.576-53.76 49.152-50.688 55.296 4.608 6.144 0 12.288-10.752 12.288s-59.904 27.648-110.592 59.904c-89.088 58.368-187.392 109.056-268.8 139.776-69.12 27.648-145.92 53.76-176.64 61.44-16.896 4.608-41.472 10.752-53.76 15.36s-36.864 12.288-53.76 15.36c-59.904 10.752-69.12 19.968-69.12 64.512 0 50.688 29.184 72.192 145.92 109.056 93.696 29.184 176.64 66.048 176.64 79.872 0 6.144 13.824 12.288 29.184 12.288 32.256 0 211.968 172.032 307.2 291.84 56.832 72.192 155.136 256.512 155.136 291.84 0 9.216 9.216 15.36 21.504 15.36 13.824 0 23.04 30.72 30.72 95.232 4.608 52.224 16.896 102.912 24.576 110.592 9.216 9.216 15.36 29.184 15.36 47.616 0 16.896 10.752 50.688 23.04 75.264 12.288 23.04 23.04 53.76 23.04 66.048 0 32.256 47.616 129.024 59.904 121.344 6.144-4.608 10.752 4.608 12.288 18.432 9.216 145.92 43.008 359.424 75.264 471.552 44.544 159.744 107.52 393.216 136.704 514.56 43.008 172.032 58.368 222.72 70.656 248.832 7.68 15.36 13.824 41.472 13.824 59.904 0 16.896 9.216 53.76 21.504 79.872 10.752 27.648 36.864 96.768 55.296 156.672 19.968 58.368 43.008 112.128 50.688 116.736s12.288 13.824 10.752 19.968c-6.144 26.112 231.936 580.608 261.12 608.256 4.608 4.608 16.896 27.648 27.648 50.688 10.752 26.112 26.112 38.4 35.328 32.256 10.752-6.144 15.36-1.536 10.752 10.752-12.288 35.328 190.464 385.536 291.84 505.344 18.432 21.504 39.936 46.08 49.152 56.832 7.68 10.752 15.36 23.04 15.36 27.648 0 33.792 250.368 281.088 422.4 414.72 211.968 165.888 642.048 374.784 904.704 439.296 35.328 7.68 76.8 18.432 93.696 23.04s55.296 10.752 84.48 15.36 67.584 13.824 84.48 21.504c156.672 67.584 1222.656 66.048 1347.072-1.536 15.36-7.68 46.08-13.824 70.656-13.824 56.832 0 79.872-26.112 79.872-90.624 0-93.696-27.648-170.496-61.44-170.496-16.896 0-30.72-7.68-30.72-16.896 0-12.288-30.72-15.36-101.376-9.216-93.696 6.144-168.96-3.072-244.224-33.792-84.48-35.328-188.928-86.016-224.256-110.592-21.504-15.36-46.08-23.04-52.224-16.896-7.68 6.144-7.68 3.072-3.072-6.144 6.144-10.752-6.144-29.184-26.112-41.472-19.968-13.824-47.616-35.328-61.44-49.152s-36.864-27.648-52.224-30.72c-13.824-1.536-24.576-10.752-23.04-18.432s-35.328-52.224-81.408-98.304c-44.544-44.544-82.944-92.16-82.944-102.912 0-13.824-9.216-18.432-24.576-12.288-12.288 4.608-19.968 3.072-13.824-4.608 4.608-7.68-3.072-24.576-15.36-36.864-12.288-13.824-23.04-30.72-23.04-38.4s-15.36-26.112-33.792-43.008c-18.432-15.36-27.648-21.504-23.04-10.752 6.144 9.216 4.608 21.504-3.072 27.648-9.216 4.608-12.288-6.144-9.216-24.576 4.608-23.04-36.864-109.056-122.88-258.048-70.656-122.88-135.168-231.936-142.848-239.616-7.68-9.216-10.752-24.576-6.144-35.328 3.072-9.216-1.536-18.432-10.752-18.432s-16.896-7.68-16.896-16.896c0-18.432-4.608-29.184-130.56-297.984-47.616-101.376-107.52-238.08-133.632-304.128-36.864-93.696-53.76-118.272-72.192-110.592s-19.968 4.608-6.144-7.68c12.288-13.824 9.216-38.4-15.36-98.304-18.432-43.008-38.4-79.872-44.544-82.944s-15.36-29.184-21.504-58.368c-4.608-29.184-15.36-52.224-23.04-52.224s-13.824-13.824-13.824-32.256c0-16.896-9.216-50.688-21.504-72.192-12.288-23.04-58.368-124.416-101.376-225.792-115.2-261.12-308.736-658.944-324.096-665.088-7.68-3.072-13.824-12.288-13.824-19.968 0-18.432-236.544-391.68-268.8-423.936-12.288-12.288-23.04-27.648-23.04-32.256 0-6.144-16.896-29.184-36.864-50.688s-53.76-72.192-78.336-115.2c-38.4-69.12-333.312-374.784-362.496-374.784-7.68 0-13.824-6.144-13.824-12.288 0-18.432-231.936-192-254.976-192-12.288 0-18.432-3.072-13.824-7.68 15.36-16.896-205.824-136.704-437.76-236.544-99.84-43.008-267.264-102.912-390.144-136.704l-121.344-35.328 167.424-33.792c188.928-38.4 480.768-110.592 503.808-125.952 9.216-4.608 26.112-10.752 39.936-12.288 27.648-3.072 231.936-75.264 302.592-107.52 26.112-12.288 58.368-21.504 72.192-21.504s24.576-7.68 24.576-15.36c0-9.216 10.752-15.36 24.576-15.36 32.256 0 236.544-110.592 228.864-122.88-3.072-6.144 1.536-10.752 12.288-10.752 35.328 0 179.712-99.84 168.96-115.2-4.608-10.752-1.536-12.288 7.68-6.144 21.504 12.288 96.768-52.224 84.48-72.192-4.608-9.216-3.072-10.752 6.144-6.144 7.68 4.608 38.4-13.824 66.048-43.008 29.184-29.184 58.368-53.76 64.512-53.76 15.36 0 139.776-127.488 195.072-199.68 21.504-29.184 49.152-62.976 59.904-73.728 9.216-10.752 18.432-30.72 18.432-43.008s6.144-21.504 12.288-21.504c7.68 0 41.472-53.76 76.8-119.808 50.688-95.232 59.904-124.416 44.544-139.776-13.824-15.36-13.824-16.896 4.608-10.752 43.008 16.896 193.536-348.672 224.256-543.744 6.144-36.864 26.112-84.48 46.08-105.984 18.432-19.968 38.4-53.76 44.544-75.264 4.608-19.968 24.576-61.44 44.544-92.16 70.656-115.2 195.072-356.352 182.784-356.352-6.144 0-4.608-6.144 3.072-12.288 36.864-26.112 145.92-208.896 145.92-242.688 0-12.288 6.144-21.504 13.824-21.504s18.432-21.504 24.576-46.08c6.144-26.112 16.896-46.08 24.576-46.08s13.824-7.68 13.824-18.432c0-9.216 27.648-86.016 61.44-167.424 33.792-82.944 61.44-165.888 61.44-184.32 0-86.016 129.024-402.432 230.4-560.64 24.576-39.936 41.472-78.336 36.864-86.016s0-10.752 12.288-9.216c12.288 3.072 21.504-13.824 24.576-46.08 4.608-46.08 1.536-49.152-46.08-49.152-61.44 0-215.04 90.624-204.288 119.808 4.608 10.752 0 15.36-9.216 10.752-70.656-44.544-505.344 508.416-505.344 642.048 0 15.36-10.752 38.4-23.04 50.688-12.288 13.824-23.04 44.544-23.04 69.12s-6.144 44.544-15.36 44.544c-7.68 0-15.36 21.504-15.36 47.616s-9.216 66.048-21.504 87.552c-12.288 23.04-29.184 82.944-38.4 133.632s-24.576 119.808-35.328 153.6l-18.432 61.44-6.144-53.76c-16.896-193.536-141.312-540.672-248.832-689.664-16.896-24.576-36.864-59.904-46.08-79.872-23.04-53.76-49.152-93.696-87.552-132.096-19.968-18.432-35.328-41.472-35.328-50.688 0-7.68-6.144-15.36-15.36-15.36-29.184 0-35.328-75.264-9.216-115.2 13.824-21.504 21.504-46.08 16.896-53.76s1.536-10.752 13.824-6.144c15.36 6.144 26.112-3.072 32.256-29.184 6.144-21.504 19.968-43.008 32.256-47.616s21.504-18.432 21.504-32.256c0-12.288 6.144-35.328 13.824-50.688 7.68-13.824 33.792-75.264 56.832-133.632 36.864-95.232 43.008-133.632 49.152-327.168 7.68-238.08-7.68-310.272-61.44-310.272-38.4 0-96.768 66.048-207.36 231.936l-89.088 135.168-10.752-79.872c-15.36-107.52-6.144-125.952 69.12-156.672 35.328-13.824 96.768-52.224 136.704-86.016 39.936-32.256 76.8-59.904 84.48-59.904 6.144 0 32.256-24.576 55.296-53.76s52.224-53.76 64.512-53.76 23.04-6.144 23.04-13.824 15.36-16.896 35.328-23.04c19.968-4.608 55.296-26.112 78.336-47.616 24.576-21.504 93.696-75.264 156.672-116.736 62.976-43.008 119.808-89.088 127.488-101.376 7.68-15.36 9.216 46.08 6.144 150.528-9.216 204.288 9.216 270.336 90.624 321.024 66.048 39.936 122.88 38.4 159.744-1.536 26.112-29.184 29.184-56.832 29.184-241.152 0-152.064-6.144-210.432-19.968-215.04-9.216-3.072-23.04-32.256-27.648-66.048-6.144-32.256-15.36-59.904-23.04-59.904s-13.824-10.752-13.824-23.04c0-29.184-72.192-58.368-116.736-47.616-27.648 7.68-35.328 1.536-41.472-41.472-3.072-26.112-4.608-53.76 0-59.904 3.072-6.144 53.76-36.864 112.128-67.584 64.512-33.792 102.912-62.976 98.304-73.728-12.288-21.504 53.76 53.76 92.16 105.984 16.896 21.504 38.4 36.864 49.152 32.256 12.288-4.608 16.896 0 10.752 15.36s3.072 26.112 24.576 32.256c16.896 4.608 32.256 15.36 32.256 23.04s19.968 10.752 44.544 7.68c33.792-6.144 43.008-1.536 41.472 18.432-1.536 15.36 12.288 26.112 33.792 29.184 19.968 3.072 39.936 15.36 44.544 27.648s15.36 16.896 26.112 10.752c9.216-4.608 12.288-4.608 6.144 3.072-6.144 6.144-4.608 24.576 4.608 41.472 12.288 21.504 29.184 27.648 76.8 24.576 86.016-4.608 141.312-70.656 136.704-158.208-1.536-4.608 9.216-18.432 19.968-30.72 24.576-24.576 49.152-205.824 33.792-253.44-9.216-27.648-3.072-30.72 69.12-30.72 43.008 0 89.088-9.216 99.84-19.968 49.152-43.008 69.12-56.832 81.408-56.832 6.144 0 26.112-12.288 43.008-27.648 15.36-15.36 61.44-49.152 99.84-76.8 75.264-50.688 90.624-73.728 90.624-138.24 0-93.696-236.544-248.832-380.928-248.832-92.16 0-93.696-7.68-61.44-161.28 32.256-156.672 26.112-228.864-21.504-254.976-35.328-18.432-178.176-10.752-347.136 19.968l-96.768 18.432-16.896 66.048c-15.36 64.512-43.008 104.448-43.008 62.976 0-12.288-19.968-44.544-44.544-73.728-39.936-49.152-49.152-52.224-155.136-58.368-61.44-4.608-148.992 1.536-193.536 12.288s-90.624 15.36-104.448 10.752c-19.968-7.68-19.968-13.824 0-55.296 13.824-26.112 21.504-66.048 18.432-89.088-3.072-35.328-12.288-44.544-53.76-47.616-41.472-4.608-50.688-10.752-50.688-43.008 0-19.968-6.144-36.864-15.36-36.864-7.68 0-23.04-15.36-32.256-35.328-16.896-30.72-16.896-32.256 6.144-12.288 19.968 16.896 62.976 18.432 202.752 9.216l176.64-10.752v-64.512c0-56.832-6.144-66.048-39.936-79.872-32.256-10.752-46.08-30.72-58.368-84.48-16.896-64.512-16.896-69.12 13.824-72.192 16.896 0 43.008-16.896 58.368-36.864s50.688-61.44 79.872-92.16c66.048-69.12 72.192-130.56 15.36-144.384-27.648-6.144-38.4-19.968-38.4-46.08 0-61.44-43.008-113.664-93.696-113.664-24.576 0-44.544 6.144-44.544 15.36 0 7.68-13.824 15.36-30.72 15.36-26.112 0-30.72 10.752-30.72 75.264 0 70.656-1.536 73.728-36.864 67.584-76.8-15.36-102.912 87.552-62.976 244.224 6.144 23.04 6.144 55.296 0 69.12-7.68 23.04-15.36 16.896-33.792-29.184-24.576-62.976-59.904-81.408-127.488-66.048-44.544 9.216-46.08 12.288-46.08 101.376 0 50.688 9.216 105.984 21.504 125.952 10.752 18.432 24.576 52.224 30.72 73.728 7.68 36.864 4.608 38.4-41.472 33.792-38.4-6.144-44.544-3.072-26.112 9.216 13.824 10.752 15.36 16.896 4.608 16.896-9.216 0-23.04-7.68-27.648-15.36-6.144-9.216-15.36-12.288-23.04-7.68s-21.504-6.144-30.72-23.04c-23.04-43.008-138.24-38.4-138.24 6.144 0 9.216-21.504 30.72-47.616 46.08-50.688 29.184-56.832 79.872-18.432 139.776 10.752 16.896 19.968 52.224 19.968 79.872s7.68 50.688 15.36 50.688c9.216 0 15.36 27.648 15.36 62.976 0 58.368 3.072 64.512 61.44 86.016 70.656 27.648 78.336 46.08 24.576 59.904-69.12 16.896-109.056 1.536-113.664-43.008-4.608-33.792-15.36-44.544-58.368-52.224-29.184-4.608-52.224-15.36-52.224-23.04s-16.896-13.824-38.4-13.824-38.4 4.608-38.4 10.752c0 21.504-93.696 66.048-138.24 66.048-33.792 0-46.08-9.216-59.904-47.616-9.216-27.648-16.896-78.336-16.896-112.128 0-56.832 9.216-73.728 78.336-139.776 115.2-113.664 136.704-172.032 152.064-427.008l13.824-216.576 55.296-47.616c39.936-35.328 53.76-61.44 53.76-96.768 0-41.472-6.144-47.616-58.368-56.832-64.512-10.752-248.832 13.824-262.656 35.328-16.896 24.576-144.384 110.592-164.352 110.592-18.432 0-82.944-115.2-82.944-150.528 0-9.216-7.68-35.328-18.432-56.832-24.576-55.296-105.984-49.152-142.848 10.752m107.52-18.432c4.608 9.216-1.536 10.752-13.824 6.144-27.648-10.752-32.256-21.504-10.752-21.504 9.216 0 19.968 6.144 24.576 15.36m-44.544 105.984c-13.824 26.112-24.576 52.224-23.04 58.368 4.608 30.72-3.072 52.224-15.36 43.008-7.68-4.608-18.432 4.608-21.504 18.432-3.072 15.36-3.072-3.072 0-41.472 4.608-38.4 13.824-72.192 19.968-76.8 7.68-4.608 21.504-29.184 32.256-53.76 13.824-33.792 19.968-39.936 24.576-19.968 3.072 13.824-4.608 46.08-16.896 72.192m615.936-4.608c-4.608 4.608-18.432 6.144-29.184 1.536-12.288-4.608-7.68-9.216 9.216-9.216 16.896-1.536 26.112 3.072 19.968 7.68m4.608 29.184c0 4.608-27.648 24.576-61.44 46.08l-61.44 39.936 1.536 156.672c0 96.768-9.216 199.68-24.576 268.8-24.576 105.984-32.256 118.272-136.704 224.256-127.488 129.024-141.312 130.56-193.536 12.288-24.576-55.296-29.184-78.336-15.36-102.912 9.216-16.896 13.824-44.544 12.288-61.44-7.68-55.296 26.112-43.008 56.832 19.968 16.896 35.328 35.328 62.976 41.472 64.512 16.896 0 49.152-112.128 46.08-159.744-3.072-23.04-16.896-82.944-33.792-132.096-30.72-89.088-29.184-109.056 4.608-184.32 24.576-52.224 49.152-76.8 78.336-76.8s46.08-26.112 21.504-35.328c-12.288-4.608-4.608-13.824 18.432-24.576 21.504-9.216 50.688-26.112 66.048-35.328 23.04-16.896 30.72-15.36 47.616 7.68 19.968 26.112 21.504 24.576 29.184-4.608 6.144-23.04 19.968-30.72 55.296-30.72 26.112 0 47.616 3.072 47.616 7.68m771.072 102.912c-3.072 15.36-12.288 27.648-18.432 27.648-13.824 0-29.184-104.448-16.896-115.2 12.288-13.824 41.472 61.44 35.328 87.552m-53.76 15.36c-4.608 12.288-9.216 7.68-9.216-9.216-1.536-16.896 3.072-26.112 7.68-19.968 4.608 4.608 6.144 18.432 1.536 29.184m-1827.84 6.144c-4.608 4.608-18.432 6.144-29.184 1.536-12.288-4.608-7.68-9.216 9.216-9.216 16.896-1.536 26.112 3.072 19.968 7.68m1013.76 62.976c-4.608 15.36-7.68 3.072-7.68-26.112s3.072-41.472 7.68-27.648c3.072 15.36 3.072 39.936 0 53.76m941.568-56.832c0 7.68-3.072 15.36-6.144 15.36-4.608 0-12.288-7.68-16.896-15.36-4.608-9.216-1.536-15.36 6.144-15.36 9.216 0 16.896 6.144 16.896 15.36m-170.496 78.336c-27.648 15.36-1.536 44.544 41.472 44.544 19.968 0 36.864 6.144 36.864 15.36 0 7.68-12.288 15.36-27.648 15.36s-36.864 9.216-47.616 18.432c-27.648 29.184-62.976-24.576-62.976-95.232 0-73.728 15.36-87.552 50.688-44.544 19.968 24.576 23.04 36.864 9.216 46.08m-79.872 9.216c-4.608 15.36-7.68 3.072-7.68-26.112s3.072-41.472 7.68-27.648c3.072 15.36 3.072 39.936 0 53.76m173.568 4.608c0 7.68-7.68 15.36-16.896 15.36-7.68 0-10.752-7.68-6.144-15.36 4.608-9.216 12.288-15.36 16.896-15.36 3.072 0 6.144 6.144 6.144 15.36m-1689.6 15.36c0 7.68 13.824 15.36 30.72 15.36s30.72 10.752 30.72 24.576c0 12.288 7.68 18.432 15.36 13.824 30.72-19.968 70.656 9.216 92.16 66.048 12.288 30.72 21.504 59.904 23.04 64.512 0 4.608 9.216 38.4 21.504 76.8 26.112 81.408 76.8 153.6 165.888 238.08 73.728 70.656 95.232 129.024 59.904 165.888-13.824 12.288-36.864 19.968-50.688 16.896-18.432-4.608-32.256 4.608-43.008 27.648-13.824 32.256-26.112 35.328-130.56 38.4-62.976 0-132.096 4.608-153.6 7.68-27.648 3.072-43.008-6.144-58.368-38.4-18.432-36.864-29.184-41.472-96.768-41.472-52.224 0-73.728 6.144-70.656 18.432 3.072 19.968-6.144 19.968-127.488-3.072-67.584-12.288-70.656-12.288-118.272 43.008-59.904 69.12-82.944 55.296-86.016-55.296-3.072-64.512 3.072-82.944 38.4-118.272 23.04-23.04 49.152-36.864 58.368-30.72s13.824 1.536 12.288-9.216c-3.072-9.216 9.216-19.968 26.112-23.04s47.616-9.216 69.12-13.824c39.936-10.752 215.04 46.08 215.04 67.584 0 6.144-15.36 19.968-33.792 29.184l-35.328 16.896 38.4 1.536c115.2 7.68 201.216 15.36 276.48 23.04l84.48 9.216-56.832-39.936c-32.256-21.504-58.368-46.08-58.368-52.224 0-21.504 59.904-30.72 73.728-10.752 6.144 9.216 30.72 30.72 55.296 46.08 35.328 23.04 46.08 24.576 56.832 7.68 7.68-12.288 13.824-27.648 13.824-35.328 0-26.112-129.024-185.856-241.152-296.448-61.44-61.44-112.128-118.272-112.128-127.488 0-26.112 41.472-35.328 75.264-15.36 59.904 30.72 35.328-13.824-29.184-53.76-58.368-36.864-79.872-69.12-46.08-69.12 9.216 0 15.36 6.144 15.36 15.36m-168.96 32.256c0 7.68-6.144 13.824-15.36 13.824-7.68 0-15.36-10.752-15.36-24.576 0-12.288 7.68-18.432 15.36-13.824 9.216 4.608 15.36 15.36 15.36 24.576m138.24 62.976c0 21.504-87.552 13.824-105.984-7.68-9.216-12.288-13.824-24.576-9.216-29.184 10.752-10.752 115.2 23.04 115.2 36.864m284.16 27.648c-4.608 7.68-15.36 15.36-24.576 15.36-7.68 0-13.824-7.68-13.824-15.36 0-9.216 10.752-15.36 24.576-15.36 12.288 0 18.432 6.144 13.824 15.36m1155.072 32.256c12.288 24.576 15.36 61.44 10.752 90.624l-10.752 49.152-35.328-44.544c-44.544-53.76-50.688-147.456-10.752-139.776 15.36 3.072 35.328 23.04 46.08 44.544m-1772.544 70.656c-10.752 3.072-19.968 16.896-19.968 29.184 0 16.896-7.68 16.896-38.4 3.072-55.296-24.576-47.616-43.008 19.968-41.472 30.72 0 47.616 4.608 38.4 9.216m809.472 19.968c0 7.68-3.072 15.36-6.144 15.36-4.608 0-12.288-7.68-16.896-15.36-4.608-9.216-1.536-15.36 6.144-15.36 9.216 0 16.896 6.144 16.896 15.36m1142.784 38.4c16.896 12.288 49.152 23.04 72.192 23.04 43.008 0 70.656 21.504 46.08 36.864s-215.04 24.576-222.72 10.752c-4.608-7.68 1.536-16.896 13.824-23.04 12.288-4.608 23.04-23.04 23.04-39.936 0-35.328 26.112-38.4 67.584-7.68M16512 5760c19.968 12.288 19.968 15.36-3.072 15.36-13.824 0-30.72-7.68-35.328-15.36-12.288-19.968 7.68-19.968 38.4 0m-276.48 102.912c-1.536 15.36-18.432 58.368-38.4 96.768l-35.328 69.12-16.896-41.472c-7.68-21.504-23.04-44.544-30.72-50.688-29.184-16.896-18.432-46.08 26.112-72.192 53.76-35.328 95.232-35.328 95.232-1.536m202.752 41.472c13.824 21.504-16.896 55.296-49.152 55.296-30.72 0-107.52 82.944-107.52 116.736 0 35.328 50.688 24.576 107.52-23.04 52.224-43.008 153.6-78.336 153.6-52.224s-24.576 46.08-95.232 79.872c-56.832 27.648-73.728 43.008-73.728 70.656 0 50.688 21.504 59.904 75.264 30.72 35.328-16.896 55.296-19.968 89.088-6.144l43.008 15.36-38.4 30.72c-50.688 39.936-133.632 29.184-176.64-23.04-16.896-19.968-55.296-41.472-84.48-47.616-69.12-13.824-148.992-93.696-82.944-81.408 26.112 4.608 59.904-43.008 98.304-141.312 33.792-87.552 43.008-95.232 89.088-64.512 23.04 13.824 46.08 32.256 52.224 39.936m-632.832-47.616c0 3.072-23.04 24.576-49.152 50.688L15705.6 5952l44.544-50.688c43.008-46.08 55.296-56.832 55.296-44.544m-142.848 244.224c-4.608 12.288-9.216 7.68-9.216-9.216-1.536-16.896 3.072-26.112 7.68-19.968 4.608 4.608 6.144 18.432 1.536 29.184m1259.52 21.504c-4.608 4.608-18.432 6.144-29.184 1.536-12.288-4.608-7.68-9.216 9.216-9.216 16.896-1.536 26.112 3.072 19.968 7.68M14983.68 6182.4c0 21.504-10.752 33.792-30.72 35.328-16.896 0-46.08 19.968-64.512 41.472s-41.472 38.4-50.688 38.4c-18.432 0-90.624-76.8-92.16-98.304 0-33.792 58.368-55.296 145.92-52.224 82.944 1.536 92.16 4.608 92.16 35.328m1769.472 30.72c-7.68 16.896-21.504 21.504-49.152 13.824-26.112-6.144-38.4-3.072-38.4 10.752 0 16.896-4.608 16.896-15.36-1.536-23.04-36.864-18.432-44.544 35.328-58.368 55.296-15.36 81.408-1.536 67.584 35.328m-1247.232 92.16c64.512 64.512 69.12 73.728 69.12 153.6 0 46.08 6.144 84.48 13.824 84.48 24.576 0 109.056 89.088 109.056 113.664 0 13.824 9.216 24.576 19.968 26.112 12.288 0 12.288 3.072 1.536 7.68s-15.36 21.504-10.752 36.864c4.608 16.896 13.824 27.648 18.432 23.04 6.144-3.072 13.824 33.792 15.36 81.408l3.072 87.552-39.936-41.472c-21.504-23.04-38.4-49.152-38.4-58.368s-19.968-38.4-46.08-66.048c-24.576-27.648-46.08-53.76-46.08-61.44 0-6.144-7.68-10.752-16.896-10.752-7.68 0-56.832-41.472-105.984-92.16-87.552-89.088-93.696-92.16-168.96-92.16h-78.336l4.608-96.768 4.608-95.232 61.44-4.608c36.864-3.072 69.12-16.896 84.48-35.328 35.328-44.544 72.192-35.328 145.92 39.936m436.224-7.68c6.144 0 18.432-7.68 27.648-16.896 39.936-39.936 64.512 19.968 32.256 82.944-38.4 73.728-43.008 89.088-43.008 124.416 0 64.512 27.648 59.904 107.52-19.968s98.304-89.088 136.704-64.512c15.36 10.752 6.144 29.184-44.544 84.48-35.328 38.4-75.264 70.656-86.016 70.656-12.288 0-21.504 10.752-21.504 24.576 0 12.288-6.144 18.432-15.36 13.824-7.68-4.608-32.256 3.072-53.76 16.896-46.08 29.184-79.872 19.968-98.304-27.648-9.216-24.576-6.144-39.936 10.752-52.224s19.968-29.184 12.288-61.44c-24.576-96.768-27.648-175.104-7.68-201.216 19.968-23.04 21.504-23.04 26.112 0 3.072 15.36 10.752 26.112 16.896 26.112m548.352 38.4c23.04 21.504 56.832 38.4 75.264 38.4 38.4 0 46.08 26.112 62.976 218.112 7.68 82.944 6.144 89.088-23.04 89.088-18.432 0-32.256 6.144-32.256 15.36 0 7.68-10.752 15.36-23.04 15.36s-23.04 10.752-23.04 23.04-6.144 23.04-15.36 23.04c-7.68 0-15.36 13.824-15.36 30.72s-6.144 30.72-15.36 30.72c-7.68 0-15.36 10.752-15.36 24.576 0 12.288-33.792 56.832-76.8 98.304-41.472 41.472-76.8 82.944-76.8 92.16 0 36.864-93.696 107.52-141.312 107.52-30.72 0-59.904 15.36-89.088 44.544-62.976 69.12-76.8 39.936-76.8-150.528 0-159.744 1.536-164.352 49.152-216.576 29.184-33.792 49.152-46.08 53.76-35.328 9.216 27.648 188.928 26.112 224.256-1.536 21.504-16.896 26.112-44.544 26.112-153.6V6497.28h-46.08c-61.44 0-62.976-49.152-1.536-101.376 26.112-21.504 50.688-52.224 55.296-67.584 13.824-43.008 73.728-38.4 124.416 7.68m497.664 32.256c0 29.184-24.576 27.648-36.864-3.072-16.896-41.472-10.752-56.832 13.824-36.864 12.288 10.752 23.04 29.184 23.04 39.936m465.408-29.184c6.144 4.608 9.216 18.432 3.072 30.72-4.608 13.824 3.072 36.864 16.896 52.224 23.04 26.112 23.04 27.648-16.896 38.4-36.864 9.216-39.936 13.824-19.968 27.648 30.72 23.04 49.152 81.408 27.648 93.696-7.68 4.608-15.36 16.896-15.36 27.648 0 9.216 12.288 0 26.112-19.968 15.36-21.504 26.112-43.008 23.04-50.688-6.144-18.432 13.824-12.288 67.584 21.504 66.048 39.936 66.048 55.296-1.536 69.12-30.72 4.608-64.512 24.576-76.8 41.472-19.968 29.184-19.968 35.328 7.68 64.512 104.448 109.056 104.448 102.912-3.072 104.448-32.256 0-58.368 7.68-59.904 16.896s-4.608 44.544-7.68 76.8c-3.072 33.792-13.824 66.048-26.112 73.728-13.824 6.144-18.432 26.112-13.824 50.688 4.608 27.648 0 38.4-18.432 38.4-29.184 0-32.256 24.576-6.144 39.936 18.432 12.288-41.472 44.544-75.264 38.4-10.752-1.536-13.824 10.752-9.216 30.72 7.68 26.112 4.608 30.72-10.752 21.504s-16.896-3.072-9.216 32.256c10.752 43.008 10.752 43.008-19.968 15.36-35.328-32.256-41.472-70.656-16.896-95.232 12.288-12.288 9.216-23.04-7.68-36.864-12.288-10.752-23.04-12.288-23.04-3.072 0 27.648-93.696 52.224-118.272 30.72-16.896-13.824-24.576-13.824-33.792 1.536-16.896 26.112-58.368-30.72-79.872-112.128l-15.36-58.368-53.76 61.44c-55.296 66.048-248.832 172.032-310.272 172.032-56.832 0-35.328-50.688 24.576-62.976 73.728-15.36 89.088-35.328 58.368-78.336l-24.576-35.328-9.216 33.792c-16.896 59.904-52.224 43.008-52.224-24.576 0-33.792-7.68-62.976-18.432-66.048-43.008-15.36 109.056-181.248 168.96-182.784 23.04 0 32.256-4.608 23.04-9.216-10.752-3.072-19.968-13.824-19.968-23.04s9.216-12.288 21.504-7.68 30.72 0 39.936-12.288c12.288-15.36 12.288-21.504-1.536-26.112-38.4-12.288 4.608-43.008 59.904-43.008 78.336 0 102.912-18.432 81.408-58.368-24.576-47.616-21.504-110.592 6.144-110.592 13.824 0 41.472-12.288 64.512-26.112 41.472-27.648 52.224-21.504 93.696 52.224 15.36 26.112 84.48 6.144 73.728-19.968-4.608-12.288 1.536-21.504 13.824-21.504s33.792-21.504 49.152-46.08c13.824-26.112 32.256-46.08 38.4-46.08s12.288-24.576 12.288-55.296v-56.832l79.872 10.752c43.008 6.144 86.016 15.36 93.696 19.968m-1717.248 27.648c21.504 0 36.864 19.968 58.368 76.8 16.896 41.472 35.328 89.088 43.008 102.912 21.504 43.008-12.288 33.792-41.472-10.752-19.968-30.72-29.184-33.792-52.224-18.432-24.576 13.824-36.864 10.752-69.12-19.968-44.544-41.472-47.616-64.512-15.36-92.16 13.824-10.752 21.504-29.184 16.896-41.472-6.144-13.824-3.072-16.896 10.752-9.216 9.216 6.144 32.256 12.288 49.152 12.288m1159.68-7.68c0 7.68-7.68 15.36-16.896 15.36-7.68 0-10.752-7.68-6.144-15.36 4.608-9.216 12.288-15.36 16.896-15.36 3.072 0 6.144 6.144 6.144 15.36m132.096 24.576c-4.608 13.824-9.216 35.328-9.216 49.152 0 15.36-4.608 19.968-15.36 9.216-16.896-16.896-3.072-82.944 18.432-82.944 9.216 0 10.752 10.752 6.144 24.576m190.464 6.144c23.04 43.008 7.68 61.44-47.616 61.44-32.256 0-44.544-6.144-38.4-19.968 4.608-9.216 13.824-30.72 18.432-46.08 12.288-35.328 47.616-33.792 67.584 4.608m-901.632 133.632c-10.752 3.072-29.184 3.072-38.4 0-10.752-4.608-3.072-7.68 18.432-7.68s29.184 3.072 19.968 7.68m-4.608 53.76c0 19.968-13.824 58.368-30.72 86.016-24.576 39.936-35.328 46.08-56.832 35.328-15.36-9.216-53.76-19.968-84.48-24.576-32.256-4.608-58.368-16.896-58.368-26.112 0-7.68 10.752-12.288 23.04-6.144 12.288 4.608 23.04 1.536 23.04-6.144 0-6.144 18.432-16.896 43.008-23.04 23.04-4.608 58.368-21.504 79.872-38.4 49.152-38.4 61.44-38.4 61.44 3.072m1645.056 69.12c19.968 24.576 18.432 26.112-4.608 6.144-15.36-10.752-27.648-23.04-27.648-26.112 0-12.288 12.288-4.608 32.256 19.968M17664 6764.544c0 4.608-6.144 12.288-15.36 16.896-7.68 4.608-15.36 1.536-15.36-6.144 0-9.216 7.68-16.896 15.36-16.896 9.216 0 15.36 3.072 15.36 6.144m-2707.968 78.336c-27.648 19.968-35.328 61.44-12.288 75.264 7.68 4.608 32.256-6.144 53.76-23.04 32.256-26.112 36.864-36.864 23.04-53.76s-12.288-21.504 6.144-21.504c30.72 0 38.4 12.288 50.688 89.088 9.216 58.368 6.144 62.976-36.864 86.016-30.72 15.36-50.688 18.432-56.832 9.216-13.824-23.04-38.4-3.072-27.648 23.04 9.216 27.648-15.36 29.184-59.904 6.144-24.576-13.824-35.328-10.752-53.76 15.36-21.504 32.256-61.44 46.08-43.008 16.896 6.144-9.216 1.536-27.648-9.216-41.472-16.896-19.968-13.824-30.72 29.184-67.584 46.08-41.472 66.048-72.192 33.792-52.224-7.68 4.608-15.36-4.608-15.36-23.04 0-33.792 43.008-56.832 105.984-56.832 33.792 0 35.328 1.536 12.288 18.432m715.776 119.808c56.832 50.688 102.912 101.376 102.912 113.664 0 21.504-16.896 84.48-95.232 365.568-15.36 58.368-47.616 152.064-69.12 205.824-23.04 53.76-39.936 107.52-39.936 118.272 0 12.288-6.144 21.504-10.752 21.504-6.144 0-19.968 19.968-30.72 46.08-10.752 24.576-23.04 46.08-29.184 46.08-19.968 0-46.08-129.024-30.72-156.672 7.68-13.824 13.824-46.08 13.824-72.192 0-38.4-10.752-52.224-69.12-87.552-38.4-21.504-69.12-46.08-69.12-52.224 0-7.68 27.648-33.792 62.976-58.368 33.792-26.112 87.552-76.8 118.272-112.128l56.832-66.048-4.608-133.632c-1.536-75.264-10.752-153.6-19.968-178.176-9.216-23.04-23.04-62.976-30.72-86.016-15.36-52.224-16.896-53.76 144.384 86.016m-625.152 90.624c-4.608 19.968-7.68 46.08-7.68 58.368-1.536 26.112-23.04 29.184-145.92 29.184-89.088 1.536-101.376-6.144-62.976-35.328 16.896-12.288 50.688-18.432 82.944-13.824 44.544 6.144 62.976 0 92.16-32.256 46.08-49.152 49.152-49.152 41.472-6.144m1449.984 161.28c0 10.752-13.824 19.968-30.72 19.968-24.576 0-30.72 10.752-30.72 46.08 0 41.472 4.608 46.08 46.08 46.08 36.864 0 46.08-6.144 47.616-35.328 1.536-18.432 7.68 0 12.288 41.472 12.288 79.872-9.216 178.176-38.4 178.176-9.216 0-29.184 13.824-44.544 30.72-29.184 32.256-99.84 43.008-99.84 15.36 0-9.216-24.576-15.36-53.76-15.36-41.472 0-53.76 6.144-53.76 26.112 0 15.36-24.576 44.544-53.76 64.512s-49.152 43.008-43.008 52.224c4.608 7.68 1.536 10.752-6.144 6.144-18.432-10.752-82.944 33.792-145.92 104.448-72.192 76.8-47.616 19.968 33.792-81.408 90.624-112.128 168.96-267.264 168.96-336.384 0-33.792 10.752-56.832 33.792-72.192 44.544-30.72 104.448-32.256 104.448-1.536 0 12.288 13.824 23.04 30.72 23.04 21.504 0 30.72-10.752 30.72-36.864 0-19.968-9.216-41.472-18.432-44.544-13.824-6.144-15.36-12.288-3.072-21.504 9.216-6.144 26.112-27.648 35.328-47.616 18.432-35.328 19.968-35.328 49.152-9.216 15.36 13.824 29.184 35.328 29.184 47.616m998.4-66.048c0 4.608-6.144 12.288-15.36 16.896-7.68 4.608-15.36 1.536-15.36-6.144 0-9.216 7.68-16.896 15.36-16.896 9.216 0 15.36 3.072 15.36 6.144m-2400.768 73.728c-21.504 12.288-56.832-13.824-56.832-44.544 0-16.896 7.68-15.36 36.864 6.144 23.04 18.432 30.72 30.72 19.968 38.4m872.448 242.688c-55.296 95.232-102.912 187.392-109.056 202.752-4.608 15.36-15.36 27.648-23.04 27.648s-13.824 27.648-13.824 61.44c0 62.976-73.728 264.192-92.16 253.44-6.144-3.072-19.968-58.368-30.72-119.808-21.504-127.488-26.112-112.128 99.84-310.272 43.008-67.584 69.12-125.952 69.12-155.136 0-26.112 9.216-56.832 21.504-67.584 23.04-18.432 167.424-76.8 173.568-70.656 3.072 1.536-39.936 82.944-95.232 178.176m-737.28 46.08c-18.432 29.184-33.792 15.36-58.368-50.688l-26.112-64.512 47.616 50.688c24.576 27.648 41.472 56.832 36.864 64.512m2182.656-82.944c-4.608 13.824-9.216 27.648-9.216 30.72s-13.824 6.144-30.72 6.144c-38.4 0-41.472-41.472-3.072-50.688 47.616-12.288 52.224-10.752 43.008 13.824m-2465.28 231.936c19.968 24.576 18.432 26.112-4.608 6.144-15.36-10.752-27.648-23.04-27.648-26.112 0-12.288 12.288-4.608 32.256 19.968m-127.488 75.264c27.648 12.288 49.152 30.72 49.152 38.4s16.896 13.824 38.4 13.824 38.4-7.68 38.4-15.36c0-9.216 9.216-15.36 21.504-15.36 10.752 0 29.184-10.752 39.936-23.04s32.256-23.04 47.616-23.04c24.576 0 29.184 12.288 29.184 84.48 0 46.08-6.144 84.48-15.36 84.48-7.68 0-15.36 19.968-15.36 46.08 0 41.472 4.608 46.08 46.08 46.08s46.08 4.608 46.08 46.08 4.608 46.08 46.08 46.08q46.08 0 46.08-23.04t46.08-23.04 46.08 23.04c0 13.824 13.824 23.04 38.4 23.04 21.504 0 38.4-7.68 38.4-15.36 0-9.216 38.4-15.36 84.48-15.36 104.448 0 116.736 18.432 127.488 202.752 4.608 101.376 12.288 135.168 29.184 135.168 10.752 0 32.256 7.68 47.616 16.896 24.576 15.36 26.112 26.112 12.288 90.624-9.216 41.472-21.504 79.872-29.184 86.016-6.144 6.144-10.752 29.184-10.752 50.688s-10.752 59.904-23.04 84.48c-12.288 23.04-23.04 59.904-23.04 79.872 0 47.616-33.792 47.616-78.336-1.536-19.968-19.968-44.544-38.4-53.76-38.4s-13.824-19.968-9.216-46.08c6.144-43.008 3.072-46.08-41.472-46.08-26.112 0-47.616 6.144-47.616 13.824s-19.968 4.608-46.08-7.68c-32.256-16.896-46.08-35.328-46.08-61.44 0-33.792-6.144-36.864-79.872-38.4-44.544-1.536-66.048-6.144-46.08-9.216 23.04-4.608 33.792-16.896 33.792-44.544 0-30.72-7.68-36.864-46.08-36.864-35.328 0-46.08 6.144-46.08 30.72 0 33.792-15.36 30.72-118.272-21.504-49.152-23.04-66.048-41.472-66.048-66.048 0-29.184-9.216-35.328-46.08-35.328q-46.08 0-46.08 23.04c0 24.576-18.432 30.72-36.864 10.752-6.144-6.144-39.936-18.432-75.264-26.112-53.76-13.824-66.048-23.04-69.12-58.368-4.608-33.792-12.288-41.472-50.688-41.472-27.648 0-44.544 7.68-44.544 21.504 0 21.504-67.584 16.896-99.84-6.144-7.68-6.144-47.616-16.896-87.552-21.504-89.088-13.824-101.376-29.184-49.152-62.976 70.656-46.08 159.744-153.6 159.744-195.072 0-15.36 24.576-18.432 102.912-15.36 58.368 3.072 122.88-1.536 147.456-10.752 39.936-15.36 41.472-21.504 41.472-116.736 0-56.832-6.144-99.84-15.36-99.84-7.68 0-15.36-13.824-15.36-30.72 0-36.864 10.752-38.4 73.728-6.144m-2735.616 999.936c-4.608 15.36-7.68 3.072-7.68-26.112s3.072-41.472 7.68-27.648c3.072 15.36 3.072 39.936 0 53.76m-15.36 768c-1.536 99.84-4.608 18.432-4.608-179.712s3.072-279.552 4.608-181.248c3.072 99.84 3.072 262.656 0 360.96m-1704.96-268.8c-4.608 10.752-7.68 3.072-7.68-18.432s3.072-29.184 7.68-19.968c3.072 10.752 3.072 29.184 0 38.4m1704.96 1029.12c-1.536 87.552-4.608 16.896-4.608-156.672s3.072-244.224 4.608-158.208c3.072 87.552 3.072 228.864 0 314.88m2534.4-30.72c-4.608 12.288-9.216 7.68-9.216-9.216-1.536-16.896 3.072-26.112 7.68-19.968 4.608 4.608 6.144 18.432 1.536 29.184m-2534.4 660.48c-1.536 87.552-4.608 16.896-4.608-156.672s3.072-244.224 4.608-158.208c3.072 87.552 3.072 228.864 0 314.88m2534.4-76.8c-4.608 10.752-7.68 3.072-7.68-18.432s3.072-29.184 7.68-19.968c3.072 10.752 3.072 29.184 0 38.4m-2534.4 499.2c-3.072 32.256-6.144 9.216-6.144-49.152 0-59.904 3.072-84.48 6.144-58.368 3.072 27.648 3.072 76.8 0 107.52m0 215.04c-4.608 15.36-7.68 3.072-7.68-26.112s3.072-41.472 7.68-27.648c3.072 15.36 3.072 39.936 0 53.76m0 399.36c-3.072 24.576-6.144 4.608-6.144-41.472s3.072-66.048 6.144-43.008c3.072 24.576 3.072 61.44 0 84.48m0 84.48c-4.608 12.288-9.216 7.68-9.216-9.216-1.536-16.896 3.072-26.112 7.68-19.968 4.608 4.608 6.144 18.432 1.536 29.184m1986.048 202.752c0 3.072-12.288 15.36-26.112 26.112-24.576 19.968-26.112 18.432-6.144-6.144s32.256-32.256 32.256-19.968m-3675.648 265.728c-4.608 15.36-7.68 6.144-7.68-18.432 0-26.112 3.072-36.864 7.68-27.648 3.072 10.752 3.072 32.256 0 46.08m7343.616 5468.16c-23.04 3.072-64.512 3.072-92.16 0s-9.216-6.144 41.472-6.144 73.728 3.072 50.688 6.144"/><path d="M15805.44 5222.4c0 7.68 7.68 15.36 15.36 15.36 9.216 0 15.36-7.68 15.36-15.36 0-9.216-6.144-15.36-15.36-15.36-7.68 0-15.36 6.144-15.36 15.36M15756.288 5291.52c-18.432 21.504-43.008 38.4-53.76 38.4-36.864 0-21.504 44.544 19.968 55.296 47.616 12.288 66.048-4.608 82.944-76.8 13.824-64.512-1.536-70.656-49.152-16.896M14711.808 5970.432c10.752 4.608 24.576 3.072 29.184-1.536 6.144-4.608-3.072-9.216-19.968-7.68-16.896 0-21.504 4.608-9.216 9.216M17264.64 6912c0 21.504 73.728 53.76 89.088 39.936 12.288-13.824-39.936-55.296-69.12-55.296-10.752 0-19.968 7.68-19.968 15.36M16763.904 6959.616c-4.608 9.216-3.072 23.04 6.144 32.256s16.896 3.072 23.04-16.896c7.68-33.792-10.752-44.544-29.184-15.36M16688.64 7017.984c-4.608 7.68 3.072 26.112 16.896 38.4 27.648 27.648 43.008 32.256 27.648 7.68-6.144-12.288 1.536-13.824 26.112-6.144 36.864 12.288 36.864 12.288 7.68-21.504-30.72-33.792-62.976-41.472-78.336-18.432M16250.88 7380.48c0 27.648 7.68 38.4 30.72 38.4s30.72-10.752 30.72-38.4-7.68-38.4-30.72-38.4-30.72 10.752-30.72 38.4M14840.832 7852.032c3.072 26.112 16.896 36.864 47.616 39.936 35.328 4.608 41.472 0 41.472-33.792s-6.144-39.936-47.616-39.936c-39.936 0-46.08 4.608-41.472 33.792M14868.48 8025.6c0 27.648 7.68 38.4 30.72 38.4s30.72-10.752 30.72-38.4-7.68-38.4-30.72-38.4-30.72 10.752-30.72 38.4M15421.44 8108.544c0 43.008 4.608 47.616 47.616 47.616 41.472 0 46.08-4.608 41.472-43.008-3.072-32.256-13.824-43.008-46.08-46.08-38.4-4.608-43.008 0-43.008 41.472M12564.48 14699.52c0 23.04 10.752 30.72 38.4 30.72s38.4-7.68 38.4-30.72-10.752-30.72-38.4-30.72-38.4 7.68-38.4 30.72M10352.64 15877.632c-1.536 1022.976-9.216 1182.72-64.512 1348.608-39.936 119.808-36.864 113.664-110.592 201.216-30.72 35.328-49.152 67.584-43.008 73.728s3.072 9.216-4.608 6.144c-21.504-6.144-115.2 33.792-115.2 50.688 0 7.68-10.752 9.216-24.576 3.072-12.288-4.608-38.4-1.536-56.832 7.68-56.832 29.184-196.608 52.224-348.672 59.904-79.872 4.608-153.6 13.824-164.352 23.04-29.184 23.04-26.112 178.176 4.608 207.36 19.968 21.504 133.632 23.04 1062.912 13.824 609.792-6.144 1367.04-4.608 1833.984 4.608 436.224 9.216 803.328 12.288 815.616 7.68 32.256-12.288 41.472-59.904 30.72-162.816l-9.216-87.552-162.816-6.144c-360.96-15.36-523.776-67.584-651.264-210.432-39.936-44.544-72.192-86.016-72.192-95.232 0-7.68-6.144-10.752-13.824-6.144-7.68 6.144-10.752-4.608-6.144-21.504s0-30.72-9.216-30.72-16.896-13.824-16.896-29.184c0-16.896-7.68-49.152-18.432-73.728-53.76-127.488-59.904-248.832-67.584-1210.368-3.072-523.776-10.752-967.68-13.824-987.648l-7.68-33.792h-1766.4zm1761.792 867.84c-4.608 10.752-7.68 3.072-7.68-18.432s3.072-29.184 7.68-19.968c3.072 10.752 3.072 29.184 0 38.4m-1735.68 184.32c-4.608 10.752-7.68 3.072-7.68-18.432s3.072-29.184 7.68-19.968c3.072 10.752 3.072 29.184 0 38.4m-774.144 729.6c-10.752 3.072-29.184 3.072-38.4 0-10.752-4.608-3.072-7.68 18.432-7.68s29.184 3.072 19.968 7.68"/></svg>